<?xml version="1.0" encoding="utf-8"?>
<!-- Generator: Adobe Illustrator 24.2.1, SVG Export Plug-In . SVG Version: 6.00 Build 0)  -->
<svg version="1.1" id="Layer_1" xmlns="http://www.w3.org/2000/svg" xmlns:xlink="http://www.w3.org/1999/xlink" x="0px" y="0px"
	 viewBox="0 0 511.2 408" style="enable-background:new 0 0 511.2 408;" xml:space="preserve">
<style type="text/css">
	.st0{fill:none;stroke:#293A51;stroke-width:7;stroke-linecap:round;stroke-linejoin:round;}
</style>
<path class="st0" d="M196.3,348.2c0,27.6,33.6-0.8,68.5,13.7c37.8,15.7,68.5,6,68.5-13.7c0-11.6-30.7-21-68.5-21
	S196.3,336.6,196.3,348.2z"/>
<path class="st0" d="M241.8,259.7c-5.8-1.3-11.3-3.5-16.5-6.4"/>
<path class="st0" d="M202.8,233.9l-73.2-73.2c-8.4-8.4-8.4-22,0-30.4l55.5-55.5c8.4-8.4,22-8.4,30.4,0l82.9,82.9
	c23.6,23.8,23.6,62.2,0,86l0,0c-8,8-18.1,13.6-29.2,16.2"/>
<path class="st0" d="M146.7,110.5L112.2,76c-5.2-5.2-5.2-13.5,0-18.7l0,0c5.2-5.1,13.5-5.1,18.7,0l34.5,34.5"/>
<path class="st0" d="M223.9,236.4v25c0,5-4,9-9,9l0,0c-5,0-9-4-9-9v-37"/>
<path class="st0" d="M269.3,226.1v69.5c0,7.6-6.2,13.7-13.8,13.8l0,0c-7.6,0-13.7-6.2-13.8-13.8v-47.5"/>
<path class="st0" d="M250.3,154.2c0,5-4,9-9,9l0,0c-5,0-9-4-9-9v-17"/>
<ellipse class="st0" cx="327.5" cy="311.6" rx="16.9" ry="6.1"/>
</svg>
