<svg xmlns="http://www.w3.org/2000/svg" viewBox="0 0 80 80"><defs><style>.cls-1{fill:#e6702e;}.cls-2{fill:#fff;}</style></defs><g id="Layer_1" data-name="Layer 1"><path class="cls-1" d="M39.45,0,0,39.45V77.72L77.72,0Z"/><polygon class="cls-2" points="77.72 0 0 77.72 0 79.84 0.79 79.05 78.98 0.86 79.84 0 77.72 0"/><polygon class="cls-2" points="37.33 0 0 37.33 0 39.45 39.45 0 37.33 0"/><g id="Layer_1-2" data-name="Layer 1"><path class="cls-2" d="M28.11,39.18l-1.7,1.7-8.76-2.12,5.44,5.44-1.74,1.7-8.27-8.26,1.7-1.71,8.82,2.18-5.46-5.5,1.7-1.7Z"/><path class="cls-2" d="M31,29.11l-3.27,3.3,2.21,2.21,3.84-3.84,1.37,1.33L29.6,37.65l-8.25-8.22,5.53-5.54,1.38,1.39-3.85,3.83,2,2,3.27-3.27Z"/><path class="cls-2" d="M40.19,22.33l-4.77-7,1.7-1.69,6.43,10.1-1.71,1.71L35,21.27l4.19,6.84-1.72,1.72L27.35,23.42l1.7-1.69,7,4.75-4.51-7.24L33,17.8Z"/></g></g></svg>