<svg xmlns="http://www.w3.org/2000/svg" viewBox="0 0 78.19 78.19"><defs><style>.cls-1{fill:#f76806;}.cls-2{fill:#fff;}</style></defs><g id="Layer_1" data-name="Layer 1"><polygon class="cls-1" points="0 39.92 0 78.19 78.19 0 39.92 0 0 39.92"/><path class="cls-2" d="M27.76,39.07l-1.7,1.7L17.3,38.65l5.44,5.44L21,45.79l-8.27-8.26,1.7-1.71L23.25,38,17.79,32.5l1.7-1.7Z"/><path class="cls-2" d="M30.64,29,27.37,32.3l2.21,2.21,3.84-3.84L34.79,32l-5.54,5.54L21,29.32l5.53-5.54,1.38,1.39L24.06,29l2,2,3.27-3.27Z"/><path class="cls-2" d="M39.84,22.22l-4.77-7,1.7-1.69,6.43,10.1-1.71,1.71-6.88-4.18L38.8,28l-1.72,1.72L27,23.31l1.7-1.69,7,4.75-4.51-7.24,1.44-1.44Z"/></g></svg>