<svg xmlns="http://www.w3.org/2000/svg" viewBox="0 0 78.19 78.19"><defs><style>.cls-1{fill:#fdb74a;}.cls-2{fill:#fff;}</style></defs><g id="Layer_1" data-name="Layer 1"><polygon class="cls-1" points="0 39.92 0 78.19 78.19 0 39.92 0 0 39.92"/><path class="cls-2" d="M10.44,42.48,14.92,47A3.21,3.21,0,0,1,16,49.42,3.82,3.82,0,0,1,14.73,52a3.91,3.91,0,0,1-2.52,1.26,3.17,3.17,0,0,1-2.45-1L5.24,47.69l1.4-1.4,4.48,4.48a1.82,1.82,0,0,0,1.29.65,1.69,1.69,0,0,0,1.19-.57,1.54,1.54,0,0,0,0-2.44L9,43.89Z"/><path class="cls-2" d="M17.39,44.34l2.39,2.39-1.4,1.4-6.79-6.79,2.65-2.65a4.31,4.31,0,0,1,1.63-1.07,2.88,2.88,0,0,1,1.69-.09,3.14,3.14,0,0,1,1.48.85,2.76,2.76,0,0,1,.89,2.26,4.05,4.05,0,0,1-1.31,2.47ZM16.25,43.2,17.5,42a1.7,1.7,0,0,0,.59-1.1,1.35,1.35,0,0,0-.45-1,1.58,1.58,0,0,0-1.1-.52,1.54,1.54,0,0,0-1.13.5l-1.29,1.28Z"/><path class="cls-2" d="M24.54,42l-6.79-6.79,2.09-2.09a4.47,4.47,0,0,1,2-1.2,4,4,0,0,1,2.25,0,5,5,0,0,1,2.08,1.3l.32.31a5,5,0,0,1,1.29,2.07,4,4,0,0,1,.05,2.24,4.53,4.53,0,0,1-1.19,2Zm-4.25-7.06,4.53,4.53.67-.67A2.15,2.15,0,0,0,26.21,37a3.42,3.42,0,0,0-1.09-2l-.36-.36a3.46,3.46,0,0,0-2-1.14,2.13,2.13,0,0,0-1.78.72Z"/><path class="cls-2" d="M33.09,30.62l-2.46,2.46.94,1.86-1.49,1.49-4.26-9.32,1.29-1.29,9.33,4.24L35,31.55Zm-3.21.95,1.7-1.7-3.4-1.69Z"/><path class="cls-2" d="M36,19.22,33.89,21.3,39.55,27l-1.4,1.4L32.49,22.7l-2.05,2.05-1.13-1.13,5.53-5.53Z"/><path class="cls-2" d="M43.57,17.05l-2.69,2.69,1.82,1.82,3.16-3.15L47,19.53l-4.55,4.55-6.79-6.79,4.54-4.54,1.13,1.13L38.17,17l1.62,1.61L42.47,16Z"/><path class="cls-2" d="M47.8,18.71,41,11.92,43.1,9.83a4.5,4.5,0,0,1,2-1.2,4,4,0,0,1,2.26,0A5,5,0,0,1,49.44,10l.31.31a4.89,4.89,0,0,1,1.3,2.08,3.89,3.89,0,0,1,0,2.24,4.54,4.54,0,0,1-1.19,2Zm-4.26-7.06,4.54,4.54.67-.68a2.15,2.15,0,0,0,.72-1.79,3.42,3.42,0,0,0-1.09-2L48,11.38a3.49,3.49,0,0,0-2-1.14,2.15,2.15,0,0,0-1.79.72Z"/></g></svg>