<svg xmlns="http://www.w3.org/2000/svg" viewBox="0 0 80 80"><defs><style>.cls-1{fill:#fcfcfc;}.cls-2{fill:#fff;}.cls-3{fill:#fdb74a;}</style></defs><g id="Layer_1" data-name="Layer 1"><polygon class="cls-1" points="56.77 15.08 12.3 59.54 1.38 46.61 43.84 2.15 56.77 15.08"/><polygon class="cls-2" points="77.72 0 0 77.72 0 79.84 0.79 79.05 78.98 0.86 79.84 0 77.72 0"/><polygon class="cls-2" points="37.33 0 0 37.33 0 39.45 39.45 0 37.33 0"/><path class="cls-3" d="M17.82,40.7a1.36,1.36,0,0,0-.45-1,1.59,1.59,0,0,0-1.1-.52,1.52,1.52,0,0,0-1.13.5L13.85,41,16,43l1.25-1.2A1.69,1.69,0,0,0,17.82,40.7Z"/><path class="cls-3" d="M48.48,15.31a2.13,2.13,0,0,0,.72-1.79,3.4,3.4,0,0,0-1.09-2l-.38-.34a3.44,3.44,0,0,0-2-1.14,2.13,2.13,0,0,0-1.79.72l-.67.69L47.81,16Z"/><polygon class="cls-3" points="27.91 27.98 29.61 31.37 31.31 29.67 27.91 27.98"/><path class="cls-3" d="M25.22,38.6a2.15,2.15,0,0,0,.72-1.8,3.4,3.4,0,0,0-1.09-2l-.36-.36a3.44,3.44,0,0,0-2-1.14,2.11,2.11,0,0,0-1.78.72l-.69.72,4.53,4.53Z"/><path class="cls-3" d="M39.45,0,0,39.45V77.72L77.72,0Zm-25,51.8a3.9,3.9,0,0,1-2.52,1.26,3.19,3.19,0,0,1-2.45-1L5,47.49l1.4-1.4,4.48,4.48a1.84,1.84,0,0,0,1.29.65,1.69,1.69,0,0,0,1.19-.57,1.54,1.54,0,0,0,.28-2.16,1.48,1.48,0,0,0-.28-.28l-4.6-4.52,1.44-1.41,4.48,4.52a3.22,3.22,0,0,1,1.08,2.42A3.83,3.83,0,0,1,14.46,51.8Zm5.05-5.27-1.4,1.4-6.79-6.79L14,38.49a4.25,4.25,0,0,1,1.63-1.07,2.87,2.87,0,0,1,1.69-.09,3.12,3.12,0,0,1,1.48.85,2.75,2.75,0,0,1,.89,2.26,4,4,0,0,1-1.31,2.47l-1.23,1.23Zm8-8.89a4.59,4.59,0,0,1-1.19,2l-2.1,2.16L17.48,35l2.09-2.09a4.43,4.43,0,0,1,2-1.2,3.92,3.92,0,0,1,2.25,0A5,5,0,0,1,25.9,33l.32.31a5,5,0,0,1,1.29,2.07A4,4,0,0,1,27.56,37.64Zm7.17-6.29-1.91-.93-2.46,2.46.94,1.86-1.49,1.49-4.26-9.32,1.29-1.29,9.33,4.24Zm3.15-3.15-5.66-5.7-2,2.05L29,23.42l5.53-5.53L35.73,19,33.62,21.1l5.66,5.7Zm4.3-4.32-6.79-6.79,4.54-4.54,1.13,1.13L37.9,16.8l1.62,1.61L42.2,15.8l1.1,1.05-2.69,2.69,1.82,1.82,3.16-3.15,1.14,1.12Zm7.41-7.45-2.06,2.08-6.8-6.79,2.1-2.09a4.52,4.52,0,0,1,2-1.2,4,4,0,0,1,2.26,0A4.92,4.92,0,0,1,49.17,9.8l.31.31a4.93,4.93,0,0,1,1.3,2.08,3.88,3.88,0,0,1,0,2.24A4.59,4.59,0,0,1,49.59,16.43Z"/></g></svg>